{"title":"Insidious: The Last Key (2018) HDCAM NEW x264 AAC - Makintos13","magnet":"magnet:?xt=urn:btih:3442e025e38f6bafe9ef7ca61555c1ae57fde5c0&dn=Insidious%3A+The+Last+Key+%282018%29+HDCAM+NEW+x264+AAC+-+Makintos13&tr=udp%3A%2F%2Ftracker.leechers-paradise.org%3A6969&tr=udp%3A%2F%2Fzer0day.ch%3A1337&tr=udp%3A%2F%2Fopen.demonii.com%3A1337&tr=udp%3A%2F%2Ftracker.coppersurfer.tk%3A6969&tr=udp%3A%2F%2Fexodus.desync.com%3A6969","uploader":"sdfsfewr43r4","categoryP":"video","categoryS":"movies","size":"1025818049","seeders":"2","leechers":"23","description":"screens:\r\n <a href=\"\nhttps://imgmak.com/mFM\" rel=\"nofollow\" target=\"_NEW\">\nhttps://imgmak.com/mFM</a>\r\n <a href=\"\nhttps://imgmak.com/mFO\" rel=\"nofollow\" target=\"_NEW\">\nhttps://imgmak.com/mFO</a>\r\n <a href=\"\nhttps://imgmak.com/mFP\" rel=\"nofollow\" target=\"_NEW\">\nhttps://imgmak.com/mFP</a>\r\n <a href=\"\nhttps://imgmak.com/mFY\" rel=\"nofollow\" target=\"_NEW\">\nhttps://imgmak.com/mFY</a>\r\n <a href=\"\nhttps://imgmak.com/mF0\" rel=\"nofollow\" target=\"_NEW\">\nhttps://imgmak.com/mF0</a>\r\n <a href=\"\nhttps://imgmak.com/mFA\" rel=\"nofollow\" target=\"_NEW\">\nhttps://imgmak.com/mFA</a>\r\n\r\n\r\nFormat                                   : Matroska\r\nFormat version                           : Version 4 / Version 2\r\nFile size                                : 978 MiB\r\nDuration                                 : 1 h 36 min\r\nOverall bit rate                         : 1 415 kb/s\r\n\r\nEncoded date                             : UTC 2018-01-07 08:13:31\r\n\r\nVideo\r\nID                                       : 2\r\nFormat                                   : AVC\r\nFormat/Info                              : Advanced Video Codec\r\nFormat profile                           : <a href=\"/cdn-cgi/l/email-protection\" class=\"__cf_email__\" data-cfemail=\"b1f9d8d6d9f1fd82\">[email&#xA0;protected]</a>\r\nFormat settings, CABAC                   : Yes\r\nFormat settings, ReFrames                : 4 frames\r\nCodec ID                                 : V_MPEG4/ISO/AVC\r\nDuration                                 : 1 h 36 min\r\nBit rate                                 : 1 348 kb/s\r\nWidth                                    : 704 pixels\r\nHeight                                   : 312 pixels\r\nDisplay aspect ratio                     : 2.25:1\r\nFrame rate mode                          : Constant\r\nFrame rate                               : 29.970 (30000/1001) FPS\r\nColor space                              : YUV\r\nChroma subsampling                       : 4:2:0\r\nBit depth                                : 8 bits\r\nScan type                                : Progressive\r\nBits/(Pixel*Frame)                       : 0.205\r\nStream size                              : 932 MiB (95%)\r\n\r\nDefault                                  : Yes\r\nForced                                   : No\r\n\r\nAudio\r\nID                                       : 1\r\nFormat                                   : AAC\r\nFormat/Info                              : Advanced Audio Codec\r\nFormat profile                           : LC\r\nCodec ID                                 : A_AAC\r\nDuration                                 : 1 h 36 min\r\nBit rate                                 : 64.5 kb/s\r\nlang                                     : hindi\r\nChannel(s)                               : 2 channels\r\nChannel positions                        : Front: L R\r\nSampling rate                            : 48.0 kHz\r\nFrame rate                               : 46.875 FPS (1024 spf)\r\nCompression mode                         : Lossy\r\nStream size                              : 44.6 MiB (5%)\r\nTitle                                    : Stereo\r\nDefault                                  : Yes\r\nForced                                   : No","last_updated":"2018-01-07T12:02:09.176Z","parsed":{"xt":"urn:btih:3442e025e38f6bafe9ef7ca61555c1ae57fde5c0","dn":"Insidious: The Last Key (2018) HDCAM NEW x264 AAC - Makintos13","tr":["udp://exodus.desync.com:6969","udp://open.demonii.com:1337","udp://tracker.coppersurfer.tk:6969","udp://tracker.leechers-paradise.org:6969","udp://zer0day.ch:1337"],"infoHash":"3442e025e38f6bafe9ef7ca61555c1ae57fde5c0","infoHashBuffer":{"type":"Buffer","data":[52,66,224,37,227,143,107,175,233,239,124,166,21,85,193,174,87,253,229,192]},"name":"Insidious: The Last Key (2018) HDCAM NEW x264 AAC - Makintos13","announce":["udp://exodus.desync.com:6969","udp://open.demonii.com:1337","udp://tracker.coppersurfer.tk:6969","udp://tracker.leechers-paradise.org:6969","udp://zer0day.ch:1337"],"urlList":[]}}